<svg width="250" height="100" viewBox="0 0 250 100" fill="none" xmlns="http://www.w3.org/2000/svg">
<path d="M133.691 37.8656C133.781 37.8656 133.868 37.9018 133.932 37.9663C133.995 38.0308 134.031 38.1182 134.031 38.2094V52.4681C134.031 59.2263 129.85 62.5572 124.338 62.5572C118.825 62.5572 114.644 59.2263 114.644 52.4681V38.2025C114.644 38.1113 114.68 38.0239 114.744 37.9594C114.807 37.895 114.894 37.8587 114.984 37.8587H118.258C118.348 37.8587 118.434 37.895 118.498 37.9594C118.562 38.0239 118.598 38.1113 118.598 38.2025V52.2172C118.598 56.9334 121.029 58.8034 124.355 58.8034C127.68 58.8034 130.084 56.9334 130.084 52.2172V38.2025C130.084 38.1113 130.12 38.0239 130.184 37.9594C130.248 37.895 130.334 37.8587 130.424 37.8587L133.691 37.8656Z" fill="#787E8E"/>
<path d="M191.082 50C191.048 57.1397 185.668 62.5503 178.647 62.5503C171.627 62.5503 166.213 57.1397 166.213 50C166.213 42.8603 171.627 37.4497 178.647 37.4497C185.668 37.4497 191.048 42.8603 191.082 50ZM170.119 50C170.119 55.06 173.784 58.8034 178.647 58.8034C183.511 58.8034 187.139 55.06 187.139 50C187.139 44.94 183.474 41.1966 178.647 41.1966C173.821 41.1966 170.119 44.94 170.119 50Z" fill="#787E8E"/>
<path d="M225.108 62.1344H221.711C221.658 62.1327 221.605 62.1182 221.558 62.0921C221.511 62.0659 221.471 62.0288 221.441 61.9839C221.41 61.939 221.391 61.8874 221.384 61.8335C221.378 61.7796 221.384 61.7248 221.402 61.6737L230.372 38.2231C230.409 38.128 230.472 38.0463 230.555 37.9886C230.638 37.931 230.737 37.9001 230.838 37.9H235.08C235.181 37.8996 235.279 37.9303 235.362 37.988C235.445 38.0458 235.509 38.1278 235.545 38.2231L244.522 61.6875C244.54 61.7386 244.546 61.7933 244.54 61.8472C244.533 61.9012 244.514 61.9527 244.483 61.9977C244.453 62.0426 244.413 62.0797 244.366 62.1058C244.319 62.132 244.266 62.1465 244.213 62.1481H240.81C240.742 62.1472 240.676 62.1258 240.62 62.0866C240.564 62.0474 240.521 61.9922 240.497 61.9281L233.263 42.6197C233.236 42.5587 233.192 42.5068 233.137 42.4704C233.082 42.434 233.018 42.4146 232.952 42.4146C232.886 42.4146 232.821 42.434 232.766 42.4704C232.711 42.5068 232.668 42.5587 232.641 42.6197L225.407 61.9281C225.381 61.9875 225.339 62.0384 225.287 62.0749C225.234 62.1114 225.172 62.132 225.108 62.1344V62.1344Z" fill="#787E8E"/>
<path d="M89.3269 62.1344H85.9304C85.8768 62.1327 85.8243 62.1182 85.7772 62.0921C85.7302 62.0659 85.6899 62.0288 85.6597 61.9839C85.6296 61.939 85.6104 61.8874 85.6037 61.8335C85.597 61.7796 85.6031 61.7248 85.6214 61.6737L94.5914 38.2231C94.6273 38.1278 94.6911 38.0458 94.7742 37.988C94.8574 37.9303 94.9559 37.8996 95.0567 37.9H99.2989C99.3996 37.9001 99.498 37.931 99.581 37.9886C99.6641 38.0463 99.7279 38.128 99.7642 38.2231L108.728 61.6875C108.746 61.7386 108.752 61.7933 108.745 61.8472C108.738 61.9012 108.719 61.9527 108.689 61.9977C108.659 62.0426 108.619 62.0797 108.572 62.1058C108.525 62.132 108.472 62.1465 108.418 62.1481H105.022C104.954 62.1472 104.888 62.1258 104.832 62.0866C104.777 62.0474 104.734 61.9922 104.709 61.9281L97.4784 42.6059C97.4518 42.5449 97.4083 42.4931 97.3531 42.4567C97.298 42.4203 97.2335 42.4009 97.1676 42.4009C97.1018 42.4009 97.0373 42.4203 96.9821 42.4567C96.927 42.4931 96.8834 42.5449 96.8569 42.6059L89.6224 61.9144C89.5991 61.9758 89.5589 62.0292 89.5065 62.0682C89.4541 62.1072 89.3918 62.1302 89.3269 62.1344V62.1344Z" fill="#787E8E"/>
<path d="M215.139 61.5878L208.41 52.8909C212.208 52.1622 214.429 49.5669 214.429 45.5862C214.429 41.0144 211.488 37.9 206.277 37.9H196.903C196.771 37.9 196.644 37.9532 196.55 38.048C196.456 38.1428 196.404 38.2713 196.404 38.4053V38.4053C196.404 39.2632 196.741 40.086 197.34 40.6926C197.939 41.2992 198.752 41.64 199.6 41.64H205.88C209.025 41.64 210.53 43.2659 210.53 45.6206C210.53 47.9753 209.059 49.6356 205.88 49.6356H196.903C196.771 49.6356 196.644 49.6889 196.55 49.7836C196.456 49.8784 196.404 50.0069 196.404 50.1409V61.7975C196.404 61.8887 196.44 61.9761 196.503 62.0406C196.567 62.105 196.653 62.1412 196.743 62.1412H199.943C200.033 62.1412 200.119 62.105 200.183 62.0406C200.247 61.9761 200.283 61.8887 200.283 61.7975V53.0937H203.978L209.82 60.8109C210.13 61.2214 210.529 61.554 210.987 61.783C211.445 62.0119 211.948 62.131 212.459 62.1309H214.891C214.951 62.1259 215.008 62.1049 215.057 62.0701C215.107 62.0352 215.146 61.9877 215.171 61.9325C215.196 61.8773 215.207 61.8163 215.201 61.7557C215.195 61.6952 215.174 61.6372 215.139 61.5878Z" fill="#787E8E"/>
<path d="M160.819 61.5878L154.091 52.8909C157.888 52.1622 160.113 49.5669 160.113 45.5862C160.113 41.0144 157.172 37.9 151.961 37.9H142.584C142.451 37.9 142.324 37.9532 142.231 38.048C142.137 38.1428 142.084 38.2713 142.084 38.4053V38.4053C142.085 39.2629 142.422 40.0851 143.022 40.6916C143.621 41.298 144.433 41.6391 145.281 41.64H151.561C154.709 41.64 156.214 43.2659 156.214 45.6206C156.214 47.9753 154.743 49.6356 151.561 49.6356H142.584C142.451 49.6356 142.324 49.6889 142.231 49.7836C142.137 49.8784 142.084 50.0069 142.084 50.1409V61.7975C142.084 61.8887 142.12 61.9761 142.184 62.0406C142.248 62.105 142.334 62.1412 142.424 62.1412H145.627C145.717 62.1412 145.803 62.105 145.867 62.0406C145.931 61.9761 145.967 61.8887 145.967 61.7975V53.0937H149.659L155.5 60.8109C155.811 61.2208 156.211 61.553 156.668 61.7819C157.126 62.0108 157.629 62.1302 158.14 62.1309H160.571C160.631 62.1259 160.689 62.1049 160.738 62.0701C160.787 62.0352 160.827 61.9877 160.852 61.9325C160.877 61.8773 160.887 61.8163 160.882 61.7557C160.876 61.6952 160.854 61.6372 160.819 61.5878Z" fill="#787E8E"/>
<path d="M48.9092 29.0312C49.9189 29.028 50.9093 29.3109 51.7683 29.8479C52.6273 30.385 53.3205 31.1547 53.7695 32.07L69.0536 63.0075C69.4682 63.8461 69.6641 64.778 69.6227 65.7148C69.5812 66.6515 69.3038 67.562 68.8168 68.3597C68.3298 69.1575 67.6494 69.8159 66.8402 70.2725C66.0309 70.7292 65.1198 70.9688 64.1933 70.9688H33.6251C32.6986 70.9688 31.7875 70.7292 30.9782 70.2725C30.169 69.8159 29.4886 69.1575 29.0016 68.3597C28.5146 67.562 28.2372 66.6515 28.1957 65.7148C28.1543 64.778 28.3502 63.8461 28.7648 63.0075L44.0489 32.07C44.4979 31.1547 45.1911 30.385 46.0501 29.8479C46.9091 29.3109 47.8995 29.028 48.9092 29.0312ZM48.9092 25.25C47.2063 25.2498 45.537 25.7295 44.0883 26.6353C42.6395 27.5412 41.4686 28.8374 40.7067 30.3787L25.4227 61.3162C24.7232 62.7314 24.3928 64.304 24.4628 65.8847C24.5329 67.4654 25.0011 69.0017 25.823 70.3478C26.6448 71.6938 27.7931 72.8048 29.1586 73.5753C30.5242 74.3458 32.0617 74.7502 33.6251 74.75H64.1933C65.7567 74.7502 67.2942 74.3458 68.6598 73.5753C70.0253 72.8048 71.1736 71.6938 71.9954 70.3478C72.8173 69.0017 73.2855 67.4654 73.3556 65.8847C73.4256 64.304 73.0952 62.7314 72.3957 61.3162L57.1117 30.3787C56.3498 28.8374 55.1789 27.5412 53.7301 26.6353C52.2814 25.7295 50.6121 25.2498 48.9092 25.25V25.25Z" fill="#787E8E"/>
</svg>
