<svg width="191" height="84" viewBox="0 0 191 84" fill="none" xmlns="http://www.w3.org/2000/svg">
<path d="M83.418 54.5V44.5156H93.7363V40.3145H83.418V33.5117H94.7207V29.1348H78.1094V54.5H83.418ZM106.056 45.2188H110.31L115.038 54.5H121.05L115.706 44.4277C118.624 43.2852 120.312 40.4727 120.312 37.2207C120.312 32.2109 116.972 29.1348 111.136 29.1348H100.747V54.5H106.056V45.2188ZM106.056 33.2832H110.573C113.21 33.2832 114.862 34.8652 114.862 37.3262C114.862 39.8398 113.298 41.3691 110.626 41.3691H106.056V33.2832ZM143.301 54.5H148.944L140.119 29.1348H133.879L125.073 54.5H130.522L132.455 48.3477H141.367L143.301 54.5ZM136.85 33.9863H136.973L140.225 44.375H133.598L136.85 33.9863ZM152.79 54.5H158.521L164.111 45.623H164.251L169.806 54.5H175.853L167.661 41.8789V41.7559L175.958 29.1348H170.035L164.603 38.2754H164.462L159.083 29.1348H152.843L160.841 41.6504V41.791L152.79 54.5Z" fill="#787E8E"/>
<path d="M18.4548 22.036C16.8844 23.6848 15.5889 25.072 15.5758 25.0981C15.5627 25.1374 16.976 26.5245 18.7165 28.1734C20.4569 29.8353 21.9749 31.2879 22.0796 31.3795L22.2759 31.5627L21.9226 32.1516C18.8212 37.2813 18.18 43.458 20.1298 49.1374C20.4962 50.2104 21.1243 51.5845 21.6609 52.4874C21.9226 52.9323 22.0404 53.2202 22.0142 53.2726C21.988 53.3249 20.4046 55 18.494 57.0021C16.5834 58.9912 15.0262 60.6532 15 60.6793C14.9869 60.7186 20.3392 65.8876 20.8495 66.3064L21.0458 66.4765L24.0687 63.3227C25.7307 61.5823 27.2879 59.9465 27.5235 59.6979L27.9684 59.253L28.3871 59.5147C30.5202 60.8756 33.0196 61.8178 35.7808 62.3151C37.1679 62.5637 39.8113 62.6292 41.2901 62.446C44.1429 62.1188 46.9695 61.1635 49.2857 59.7633L49.8877 59.3969L50.5289 60.025C51.9291 61.386 57.1636 66.3587 57.2159 66.3849C57.2682 66.4111 63.0131 60.4045 63 60.326C62.9869 60.2868 59.048 56.5049 56.6401 54.241L55.8419 53.482L56.2083 52.88C59.2835 47.7633 59.9247 41.5605 57.9356 35.8419C57.6477 35.0043 56.771 33.1199 56.2606 32.2563L56.012 31.8244L59.3751 28.3042C61.2203 26.3806 62.7252 24.771 62.7121 24.7317C62.6597 24.6009 56.771 19.0393 56.6925 19.0393C56.6401 19.0393 55.1614 20.5442 53.3947 22.4024C51.6281 24.2475 50.1625 25.7655 50.1232 25.7786C50.097 25.7917 49.9269 25.7132 49.7699 25.5954C49.325 25.2944 48.1996 24.6794 47.5714 24.3915C45.6608 23.5147 43.8811 22.9782 41.8135 22.6772C40.7405 22.5202 37.5213 22.494 36.5267 22.6379C34.145 22.9782 32.1952 23.5671 30.2061 24.5616C29.6303 24.8364 28.9629 25.2028 28.7012 25.3599L28.2301 25.6478L27.6936 25.1243C27.4057 24.8364 26.0971 23.6063 24.8015 22.3631C23.506 21.133 22.1843 19.8768 21.8702 19.5627L21.2945 19L18.4548 22.036ZM40.4264 30.5681C42.5071 30.8168 44.3653 31.5234 46.0796 32.7274C46.9564 33.3424 48.265 34.651 48.88 35.5278C52.374 40.4744 51.7066 47.2006 47.3097 51.3228C43.554 54.8298 38.1232 55.615 33.5562 53.2857C30.2585 51.5976 27.9291 48.5092 27.1832 44.8059C26.9477 43.6281 26.9477 41.4296 27.1832 40.265C27.4057 39.1134 27.7067 38.289 28.2694 37.1374C30.5202 32.6096 35.4013 29.9662 40.4264 30.5681Z" fill="#787E8E"/>
</svg>
