<svg width="250" height="100" viewBox="0 0 250 100" fill="none" xmlns="http://www.w3.org/2000/svg">
<path d="M123.608 33.8482V62.2058C123.608 62.4219 123.446 62.638 123.176 62.638H120.21C118.862 62.638 117.568 61.9358 116.813 60.8015L103.438 40.1139L103.869 50.4307V62.2598C103.869 62.4759 103.708 62.692 103.438 62.692H99.555C99.3393 62.692 99.1235 62.5299 99.1235 62.2598V33.8482C99.1235 33.6321 99.2853 33.4161 99.555 33.4161H102.467C103.815 33.4161 105.11 34.1183 105.865 35.2526L119.239 55.8861L118.808 45.5693V33.8482C118.808 33.6321 118.97 33.4161 119.239 33.4161H123.122C123.446 33.4161 123.608 33.5781 123.608 33.8482Z" fill="#787E8E"/>
<path d="M163.408 62.5839H159.31C159.04 62.5839 158.824 62.3139 158.932 62.0438L169.826 33.7942C169.934 33.5781 170.15 33.4161 170.365 33.4161H175.543C175.812 33.4161 176.028 33.5781 176.082 33.7942L187.03 62.0438C187.138 62.3139 186.922 62.5839 186.652 62.5839H182.554C182.392 62.5839 182.23 62.4759 182.176 62.3139L173.385 39.0876C173.278 38.7635 172.738 38.7635 172.63 39.0876L163.84 62.3139C163.732 62.4759 163.57 62.5839 163.408 62.5839Z" fill="#787E8E"/>
<path d="M215.613 61.9358L207.415 51.4569C212.053 50.5927 214.75 47.4599 214.75 42.6526C214.75 37.1431 211.19 33.4161 204.827 33.4161H193.394C193.07 33.4161 192.8 33.6861 192.8 34.0102C192.8 36.1708 194.526 37.8993 196.683 37.8993H204.395C208.224 37.8993 210.058 39.8438 210.058 42.7066C210.058 45.5693 208.278 47.5139 204.395 47.5139H193.501C193.178 47.5139 192.908 47.7839 192.908 48.108V62.1518C192.908 62.3679 193.07 62.5839 193.34 62.5839H197.223C197.438 62.5839 197.654 62.4219 197.654 62.1518V51.727H202.13L209.249 61.0175C210.004 62.0438 211.19 62.5839 212.485 62.5839H215.451C215.667 62.5839 215.828 62.2058 215.613 61.9358Z" fill="#787E8E"/>
<path d="M151.112 33.4161H133.046C132.722 33.4161 132.506 33.6321 132.506 33.9562C132.506 36.1168 134.286 37.8993 136.443 37.8993H151.112C151.328 37.8993 151.544 37.7372 151.544 37.4672V33.7942C151.49 33.5781 151.328 33.4161 151.112 33.4161ZM151.112 58.1007H137.63C137.414 58.1007 137.198 57.9387 137.198 57.6686V50.3766C137.198 50.1606 137.36 49.9445 137.63 49.9445H150.088C150.303 49.9445 150.519 49.7825 150.519 49.5124V45.8394C150.519 45.6234 150.357 45.4073 150.088 45.4073H133.1C132.776 45.4073 132.506 45.6774 132.506 46.0015V61.9358C132.506 62.2599 132.776 62.5299 133.1 62.5299H151.112C151.328 62.5299 151.544 62.3679 151.544 62.0978V58.4248C151.49 58.2628 151.328 58.1007 151.112 58.1007Z" fill="#787E8E"/>
<path d="M70.2169 26.1781L60.078 41.2482C59.3769 42.2745 60.7252 43.5168 61.6959 42.6526L71.673 33.9562C71.9426 33.7402 72.3201 33.9022 72.3201 34.2803V61.4496C72.3201 61.8277 71.8348 61.9898 71.619 61.7197L41.4182 25.5299C40.4474 24.3416 39.0452 23.6934 37.4813 23.6934H36.4027C33.5983 23.6934 31.2793 26.0161 31.2793 28.8788V67.1212C31.2793 69.9839 33.5983 72.3066 36.4566 72.3066C38.2363 72.3066 39.9081 71.3883 40.8789 69.8219L51.0177 54.7518C51.7188 53.7256 50.3706 52.4832 49.3998 53.3475L39.4227 61.9898C39.1531 62.2058 38.7756 62.0438 38.7756 61.6657V34.5504C38.7756 34.1723 39.261 34.0102 39.4767 34.2803L69.6776 70.4701C70.6483 71.6584 72.1044 72.3066 73.6145 72.3066H74.6931C77.5514 72.3066 79.8704 69.9839 79.8704 67.1212V28.8788C79.8164 26.0161 77.4974 23.6934 74.6391 23.6934C72.8594 23.6934 71.1876 24.6117 70.2169 26.1781Z" fill="#787E8E"/>
</svg>
