<svg width="48" height="48" viewBox="0 0 48 48" fill="none" xmlns="http://www.w3.org/2000/svg">
<path d="M24 48C37.2548 48 48 37.2548 48 24C48 10.7452 37.2548 0 24 0C10.7452 0 0 10.7452 0 24C0 37.2548 10.7452 48 24 48Z" fill="#E7E7E8"/>
<path d="M24 41.2363C35.0858 41.2363 44.0727 32.2495 44.0727 21.1636C44.0727 10.0777 35.0858 1.09088 24 1.09088C12.9141 1.09088 3.92725 10.0777 3.92725 21.1636C3.92725 32.2495 12.9141 41.2363 24 41.2363Z" fill="#4C5E82"/>
<path d="M24.1089 41.2364C33.327 41.2364 40.7998 33.7636 40.7998 24.5455C40.7998 15.3273 33.327 7.85455 24.1089 7.85455C14.8907 7.85455 7.41797 15.3273 7.41797 24.5455C7.41797 33.7636 14.8907 41.2364 24.1089 41.2364Z" fill="black"/>
<path d="M7.02963 5.577L5.79541 6.81122L12.4412 13.457L13.6754 12.2228L7.02963 5.577Z" fill="#1A1A1A"/>
<path d="M35.2621 33.8099L34.0278 35.0441L40.9703 41.9866L42.2046 40.7524L35.2621 33.8099Z" fill="#1A1A1A"/>
</svg>
